# Blender v2.79 (sub 0) OBJ File: ''
# www.blender.org
mtllib BeachTowel(Rough).mtl
o Cube.001_Cube.002
v -2.762445 -0.010126 2.821253
v -2.598110 -0.010773 -2.533765
v 2.956418 -0.009166 3.002743
v 2.751940 -0.011812 -2.943232
v -3.098879 -0.022261 -0.037013
v -0.169539 0.000627 -2.814453
v 2.801488 -0.024680 0.078014
v 0.181572 0.074450 2.729317
v 0.010466 -0.043583 0.099236
v -2.941986 0.012503 -1.490841
v 1.632634 -0.007680 -2.757792
v 2.816740 -0.021971 1.568141
v -1.436451 0.009818 2.780577
v -2.679822 -0.020375 1.640436
v -1.528767 -0.022570 -2.824970
v 2.903791 -0.022388 -1.292368
v 1.613430 -0.016470 3.036270
v 0.258903 -0.049879 1.565224
v -0.231531 -0.047874 -1.613654
v 1.486340 -0.047206 0.110259
v -1.380681 -0.048063 -0.097113
v -1.622410 -0.053102 -1.567454
v 1.583343 -0.046910 -1.521158
v 1.575892 -0.055843 1.599828
v -1.125975 -0.049018 1.722504
v -2.847211 -0.010901 -2.105666
v 2.323060 -0.011725 -2.865542
v 2.799714 -0.017136 2.386945
v -2.282351 -0.017419 2.927959
v -2.786060 -0.023104 0.809335
v -0.784539 -0.017989 -2.957941
v 2.761433 -0.023789 -0.526002
v 0.894987 0.082678 2.864738
v 0.261587 -0.043075 2.070506
v -0.145743 -0.048534 -0.698301
v 2.305271 -0.046318 -0.015495
v -0.718910 -0.048836 -0.008856
v -3.133192 -0.019871 -0.788891
v 0.736755 -0.010865 -2.637767
v 2.871220 -0.022592 0.715977
v -0.551481 0.071735 2.645585
v -2.752605 -0.018583 2.370034
v -2.202134 -0.023219 -2.643683
v 3.028045 -0.016876 -2.390986
v 2.528168 -0.017228 3.035296
v 0.178122 -0.044817 0.796053
v -0.237942 -0.046309 -2.379869
v 0.654134 -0.042773 0.141536
v -2.359967 -0.043281 -0.127845
v -1.499018 -0.047518 -0.845724
v -1.569015 -0.046960 -2.270795
v -0.966544 -0.046942 -1.705706
v -2.323220 -0.049387 -1.475164
v 1.597150 -0.048060 -0.624236
v 1.620563 -0.047990 -2.382306
v 2.357616 -0.041707 -1.345206
v 0.671497 -0.050598 -1.463810
v 1.535904 -0.049480 2.273817
v 1.583786 -0.050526 0.753118
v 2.359629 -0.052470 1.542967
v 0.879099 -0.052169 1.610723
v -1.209419 -0.040777 2.301428
v -1.281986 -0.050920 0.771834
v -0.451302 -0.054387 1.543540
v -2.009143 -0.044819 1.753695
v -2.202589 -0.046453 0.751997
v -0.581604 -0.052084 0.748309
v -0.435447 -0.043562 2.042838
v 0.820871 -0.045708 0.789977
v 2.398449 -0.048751 0.636879
v 2.370569 -0.044193 2.305831
v 0.697688 -0.052584 -2.211404
v 2.451231 -0.039621 -2.380419
v 2.329308 -0.044145 -0.571750
v -2.292783 -0.043303 -2.118270
v -0.877790 -0.043729 -2.489102
v -0.879861 -0.048179 -0.804651
v -2.374189 -0.041912 -0.838629
v 0.659426 -0.048139 -0.604689
v 0.873766 -0.041812 2.172598
v -2.096471 -0.040493 2.496397
v -2.812270 0.030541 2.805153
v -2.583228 0.036403 -2.666538
v 2.893898 0.032714 2.885437
v 2.723998 0.032109 -2.814808
v -3.128350 0.055467 0.166198
v 0.018012 0.096850 -2.957753
v 2.981843 0.038769 0.179792
v 0.057829 0.157940 2.990298
v 0.195489 0.191116 -0.013600
v -3.047013 0.099184 -1.437869
v 1.659193 0.086313 -2.967270
v 2.848957 0.038181 1.482297
v -1.619596 0.042676 2.868081
v -2.761826 0.038288 1.618400
v -1.533764 0.040663 -2.868397
v 2.939212 0.039647 -1.318363
v 1.513063 0.057557 3.036192
v -0.058575 0.195547 1.636692
v 0.102612 0.178184 -1.613948
v 1.552407 0.192186 0.084318
v -1.328131 0.193657 0.262140
v -1.559082 0.187358 -1.504482
v 1.758047 0.186151 -1.649504
v 1.448363 0.100176 1.523005
v -1.622383 0.105554 1.556501
v -2.913276 0.059572 -2.138371
v 2.292220 0.052138 -2.892678
v 2.796861 0.038447 2.306260
v -2.399982 0.035467 2.892158
v -2.820923 0.044931 0.972179
v -0.628534 0.049832 -3.020717
v 2.878361 0.038697 -0.557196
v 0.807681 0.152683 2.997025
v 0.066139 0.186862 2.482495
v 0.157500 0.181802 -0.665612
v 2.440761 0.069147 0.083290
v -0.634660 0.192821 0.162367
v -3.160500 0.051819 -0.650243
v 0.826104 0.091207 -2.883101
v 2.966487 0.039773 0.757925
v -0.730817 0.156763 2.916177
v -2.822047 0.037535 2.269958
v -2.261507 0.039222 -2.743525
v 2.980580 0.043126 -2.244980
v 2.390264 0.040781 2.955453
v 0.037970 0.197195 0.808676
v 0.018890 0.183640 -2.445358
v 0.924729 0.190538 -0.095885
v -2.346276 0.186186 0.259878
v -1.281169 0.190405 -0.543927
v -1.715925 0.075201 -2.349150
v -0.650020 0.182410 -1.671392
v -2.522609 0.184634 -1.439917
v 1.639567 0.187634 -0.764345
v 1.704543 0.183995 -2.409422
v 2.436558 0.088924 -1.544696
v 0.913902 0.181799 -1.622044
v 1.520473 0.098078 2.343541
v 1.430284 0.190725 0.801231
v 2.305508 0.062616 1.444977
v 0.810478 0.190939 1.512162
v -1.585591 0.077630 2.274007
v -1.527881 0.090998 1.004981
v -0.973351 0.191892 1.627967
v -2.325517 0.064351 1.721384
v -2.347914 0.070358 1.135261
v -0.842416 0.106770 0.965111
v -0.808127 0.181274 2.434121
v 0.773155 0.192164 0.685486
v 2.407683 0.065963 0.713794
v 2.282498 0.061241 2.299884
v 0.843640 0.183349 -2.355968
v 2.399648 0.085333 -2.324166
v 2.390591 0.079980 -0.739807
v -2.564304 0.087403 -2.170232
v -0.726766 0.089149 -2.549439
v -0.571157 0.185784 -0.623583
v -2.329324 0.185387 -0.623425
v 0.904064 0.183580 -0.777787
v 0.892123 0.184819 2.362447
v -2.345212 0.059591 2.294326
vn -0.0034 -0.9991 0.0417
vn 0.0374 -0.7338 0.6783
vn -0.3836 -0.6478 0.6582
vn -0.3484 -0.9373 -0.0001
vn -0.0320 -0.9961 0.0819
vn -0.1019 -0.9402 0.3249
vn -0.0241 -0.9680 0.2496
vn -0.0088 -0.9955 0.0942
vn -0.0004 -1.0000 0.0032
vn -0.0018 -1.0000 0.0009
vn 0.0034 -1.0000 0.0002
vn 0.0004 -1.0000 0.0020
vn -0.0265 -0.9996 -0.0063
vn -0.0186 -0.9998 0.0005
vn -0.5425 -0.8388 0.0449
vn -0.5491 -0.8291 -0.1053
vn 0.0011 -1.0000 0.0004
vn 0.0021 -1.0000 -0.0015
vn -0.0031 -1.0000 -0.0018
vn -0.0016 -1.0000 0.0025
vn 0.0051 -0.9993 -0.0367
vn 0.0020 -1.0000 -0.0023
vn -0.0010 -1.0000 -0.0008
vn -0.0046 -0.9996 -0.0258
vn -0.0381 -0.9991 -0.0206
vn -0.0382 -0.9992 -0.0050
vn -0.4330 -0.8984 -0.0729
vn -0.4057 -0.9053 -0.1256
vn 0.0238 -0.9997 -0.0009
vn 0.0235 -0.9997 -0.0035
vn -0.0014 -1.0000 -0.0011
vn 0.0025 -1.0000 0.0003
vn 0.0169 -0.9995 -0.0276
vn 0.0228 -0.9997 -0.0000
vn 0.0055 -1.0000 0.0003
vn -0.0009 -0.9988 -0.0480
vn -0.0003 -0.9990 -0.0445
vn 0.0001 -1.0000 0.0010
vn -0.0023 -1.0000 -0.0007
vn 0.0076 -0.9989 -0.0452
vn 0.0273 -0.9994 0.0195
vn 0.1238 -0.2864 0.9500
vn -0.0369 -0.5915 0.8054
vn -0.0291 -0.9984 0.0478
vn 0.0299 -0.9995 -0.0039
vn 0.0326 -0.9995 0.0035
vn -0.0016 -1.0000 0.0030
vn -0.0019 -1.0000 -0.0050
vn -0.0038 -1.0000 -0.0052
vn -0.0051 -1.0000 0.0042
vn 0.0013 -1.0000 0.0050
vn 0.0035 -1.0000 -0.0052
vn 0.0104 -0.9960 0.0889
vn 0.0270 -0.9687 0.2467
vn 0.0814 -0.9487 0.3053
vn 0.0330 -0.9958 0.0851
vn 0.0028 -1.0000 -0.0033
vn 0.0017 -1.0000 0.0065
vn -0.0026 -0.9999 0.0083
vn -0.0038 -1.0000 -0.0007
vn -0.0204 -0.9998 0.0037
vn -0.0181 -0.9998 0.0050
vn -0.3285 -0.9445 0.0030
vn -0.3155 -0.9439 0.0975
vn 0.3188 -0.9478 0.0096
vn 0.6002 -0.7991 0.0329
vn 0.2287 -0.9733 -0.0201
vn 0.7251 -0.6813 -0.1002
vn 0.7048 -0.3330 0.6263
vn -0.0260 -0.9585 -0.2839
vn 0.0048 -0.9690 -0.2469
vn 0.0622 -0.9576 -0.2814
vn 0.8967 -0.3296 -0.2955
vn 0.4918 -0.8692 0.0513
vn 0.3103 -0.3085 -0.8992
vn 0.0025 -0.7850 -0.6194
vn 0.2636 -0.9646 0.0037
vn -0.0816 -0.8988 -0.4306
vn -0.0800 -0.9516 -0.2965
vn -0.3077 -0.9177 -0.2512
vn -0.0477 -0.8604 -0.5074
vn -0.0342 0.9991 0.0258
vn -0.9579 0.2839 -0.0431
vn -0.8481 0.2976 0.4383
vn -0.1263 0.7006 0.7023
vn 0.0762 0.9967 0.0287
vn 0.0003 0.9994 0.0336
vn -0.0777 0.1319 0.9882
vn -0.0332 0.2531 0.9669
vn -0.0037 1.0000 -0.0060
vn 0.0004 1.0000 -0.0077
vn -0.0073 1.0000 0.0000
vn -0.0009 1.0000 -0.0063
vn -0.0768 0.9970 0.0064
vn -0.9071 0.4208 0.0126
vn -0.9274 0.2586 0.2701
vn -0.0793 0.9951 0.0593
vn 0.0040 1.0000 -0.0065
vn 0.0001 1.0000 -0.0038
vn -0.0016 0.9979 0.0641
vn -0.0127 0.9994 0.0314
vn -0.0469 0.9944 -0.0948
vn -0.0172 0.9947 -0.1012
vn -0.0094 0.9981 -0.0602
vn -0.0199 0.9988 -0.0450
vn -0.0580 0.9926 -0.1061
vn -0.8891 0.2619 -0.3754
vn -0.8880 0.4250 -0.1754
vn -0.0818 0.9955 -0.0470
vn 0.1109 0.9938 0.0100
vn 0.0672 0.9977 0.0036
vn 0.0686 0.9976 0.0050
vn 0.0973 0.9952 0.0070
vn 0.1025 0.9936 -0.0481
vn 0.0601 0.9948 -0.0819
vn 0.0736 0.9973 0.0004
vn 0.1122 0.9937 0.0045
vn 0.0005 0.9968 -0.0798
vn -0.0299 0.9956 -0.0885
vn -0.0122 0.9998 -0.0107
vn -0.0036 1.0000 -0.0002
vn 0.0396 0.9991 0.0157
vn 0.0873 0.9958 0.0249
vn -0.0898 0.4896 0.8673
vn 0.0425 0.9059 0.4213
vn 0.0809 0.9964 0.0236
vn 0.0706 0.9968 0.0379
vn 0.0871 0.9958 0.0285
vn 0.0592 0.9980 0.0232
vn 0.0165 0.9998 0.0113
vn -0.0228 0.9997 -0.0013
vn -0.0143 0.9998 -0.0113
vn 0.0522 0.9985 0.0154
vn -0.0713 0.9966 0.0421
vn -0.0842 0.9955 0.0441
vn 0.0306 0.5715 0.8200
vn -0.0052 0.1997 0.9798
vn -0.0409 0.9991 0.0038
vn -0.0312 0.9988 0.0373
vn -0.0707 0.9974 -0.0107
vn -0.0750 0.9969 -0.0235
vn -0.0601 0.9969 0.0515
vn -0.9219 0.3272 0.2071
vn -0.9429 0.3309 0.0372
vn -0.0476 0.9988 0.0085
vn 0.9497 0.3057 0.0675
vn 0.8850 0.4581 0.0835
vn 0.9830 0.1772 -0.0474
vn 0.7250 0.6887 0.0035
vn 0.5709 0.8190 0.0562
vn 0.0077 0.1845 -0.9828
vn -0.0051 0.1345 -0.9909
vn 0.0588 0.1794 -0.9820
vn 0.6874 0.7262 -0.0027
vn 0.7965 0.5998 0.0758
vn 0.2130 0.9260 -0.3116
vn 0.0783 0.6724 -0.7360
vn 0.9592 0.2777 0.0524
vn -0.1764 0.3885 -0.9044
vn -0.2410 0.2313 -0.9425
vn -0.5036 0.1419 -0.8522
vn 0.0437 0.1960 -0.9796
usemtl None
s 1
f 81//1 29//2 1//3 42//4
f 80//5 33//6 8//7 34//8
f 79//9 48//10 9//11 35//12
f 78//13 49//14 5//15 38//16
f 77//17 37//18 21//19 50//20
f 76//21 52//22 22//23 51//24
f 75//25 53//26 10//27 26//28
f 74//29 36//30 20//31 54//32
f 73//33 56//34 23//35 55//36
f 72//37 57//38 19//39 47//40
f 71//41 45//42 17//43 58//44
f 70//45 60//46 24//47 59//48
f 69//49 61//50 18//51 46//52
f 68//53 41//54 13//55 62//56
f 67//57 64//58 25//59 63//60
f 66//61 65//62 14//63 30//64
f 63//60 25//59 65//62 66//61
f 21//19 63//60 66//61 49//14
f 49//14 66//61 30//64 5//15
f 46//52 18//51 64//58 67//57
f 9//11 46//52 67//57 37//18
f 37//18 67//57 63//60 21//19
f 34//8 8//7 41//54 68//53
f 18//51 34//8 68//53 64//58
f 64//58 68//53 62//56 25//59
f 59//48 24//47 61//50 69//49
f 20//31 59//48 69//49 48//10
f 48//10 69//49 46//52 9//11
f 40//65 12//66 60//46 70//45
f 7//67 40//65 70//45 36//30
f 36//30 70//45 59//48 20//31
f 28//68 3//69 45//42 71//41
f 12//66 28//68 71//41 60//46
f 60//46 71//41 58//44 24//47
f 55//36 23//35 57//38 72//37
f 11//70 55//36 72//37 39//71
f 39//71 72//37 47//40 6//72
f 44//73 16//74 56//34 73//33
f 4//75 44//73 73//33 27//76
f 27//76 73//33 55//36 11//70
f 32//77 7//67 36//30 74//29
f 16//74 32//77 74//29 56//34
f 56//34 74//29 54//32 23//35
f 51//24 22//23 53//26 75//25
f 15//78 51//24 75//25 43//79
f 43//79 75//25 26//28 2//80
f 47//40 19//39 52//22 76//21
f 6//72 47//40 76//21 31//81
f 31//81 76//21 51//24 15//78
f 35//12 9//11 37//18 77//17
f 19//39 35//12 77//17 52//22
f 52//22 77//17 50//20 22//23
f 50//20 21//19 49//14 78//13
f 22//23 50//20 78//13 53//26
f 53//26 78//13 38//16 10//27
f 54//32 20//31 48//10 79//9
f 23//35 54//32 79//9 57//38
f 57//38 79//9 35//12 19//39
f 58//44 17//43 33//6 80//5
f 24//47 58//44 80//5 61//50
f 61//50 80//5 34//8 18//51
f 62//56 13//55 29//2 81//1
f 25//59 62//56 81//1 65//62
f 65//62 81//1 42//4 14//63
f 162//82 123//83 82//84 110//85
f 161//86 115//87 89//88 114//89
f 160//90 116//91 90//92 129//93
f 159//94 119//95 86//96 130//97
f 158//98 131//99 102//100 118//101
f 157//102 132//103 103//104 133//105
f 156//106 107//107 91//108 134//109
f 155//110 135//111 101//112 117//113
f 154//114 136//115 104//116 137//117
f 153//118 128//119 100//120 138//121
f 152//122 139//123 98//124 126//125
f 151//126 140//127 105//128 141//129
f 150//130 127//131 99//132 142//133
f 149//134 143//135 94//136 122//137
f 148//138 144//139 106//140 145//141
f 147//142 111//143 95//144 146//145
f 144//139 147//142 146//145 106//140
f 102//100 130//97 147//142 144//139
f 130//97 86//96 111//143 147//142
f 127//131 148//138 145//141 99//132
f 90//92 118//101 148//138 127//131
f 118//101 102//100 144//139 148//138
f 115//87 149//134 122//137 89//88
f 99//132 145//141 149//134 115//87
f 145//141 106//140 143//135 149//134
f 140//127 150//130 142//133 105//128
f 101//112 129//93 150//130 140//127
f 129//93 90//92 127//131 150//130
f 121//146 151//126 141//129 93//147
f 88//148 117//113 151//126 121//146
f 117//113 101//112 140//127 151//126
f 109//149 152//122 126//125 84//150
f 93//147 141//129 152//122 109//149
f 141//129 105//128 139//123 152//122
f 136//115 153//118 138//121 104//116
f 92//151 120//152 153//118 136//115
f 120//152 87//153 128//119 153//118
f 125//154 154//114 137//117 97//155
f 85//156 108//157 154//114 125//154
f 108//157 92//151 136//115 154//114
f 113//158 155//110 117//113 88//148
f 97//155 137//117 155//110 113//158
f 137//117 104//116 135//111 155//110
f 132//103 156//106 134//109 103//104
f 96//159 124//160 156//106 132//103
f 124//160 83//161 107//107 156//106
f 128//119 157//102 133//105 100//120
f 87//153 112//162 157//102 128//119
f 112//162 96//159 132//103 157//102
f 116//91 158//98 118//101 90//92
f 100//120 133//105 158//98 116//91
f 133//105 103//104 131//99 158//98
f 131//99 159//94 130//97 102//100
f 103//104 134//109 159//94 131//99
f 134//109 91//108 119//95 159//94
f 135//111 160//90 129//93 101//112
f 104//116 138//121 160//90 135//111
f 138//121 100//120 116//91 160//90
f 139//123 161//86 114//89 98//124
f 105//128 142//133 161//86 139//123
f 142//133 99//132 115//87 161//86
f 143//135 162//82 110//85 94//136
f 106//140 146//145 162//82 143//135
f 146//145 95//144 123//83 162//82
f 45//42 3//69 84//150 126//125
f 17//43 45//42 126//125 98//124
f 32//77 16//74 97//155 113//158
f 7//67 32//77 113//158 88//148
f 33//6 17//43 98//124 114//89
f 8//7 33//6 114//89 89//88
f 38//16 5//15 86//96 119//95
f 10//27 38//16 119//95 91//108
f 39//71 6//72 87//153 120//152
f 11//70 39//71 120//152 92//151
f 26//28 10//27 91//108 107//107
f 2//80 26//28 107//107 83//161
f 40//65 7//67 88//148 121//146
f 12//66 40//65 121//146 93//147
f 27//76 11//70 92//151 108//157
f 4//75 27//76 108//157 85//156
f 41//54 8//7 89//88 122//137
f 13//55 41//54 122//137 94//136
f 28//68 12//66 93//147 109//149
f 3//69 28//68 109//149 84//150
f 42//4 1//3 82//84 123//83
f 14//63 42//4 123//83 95//144
f 29//2 13//55 94//136 110//85
f 1//3 29//2 110//85 82//84
f 43//79 2//80 83//161 124//160
f 15//78 43//79 124//160 96//159
f 30//64 14//63 95//144 111//143
f 5//15 30//64 111//143 86//96
f 44//73 4//75 85//156 125//154
f 16//74 44//73 125//154 97//155
f 31//81 15//78 96//159 112//162
f 6//72 31//81 112//162 87//153
