# Blender v2.79 (sub 0) OBJ File: ''
# www.blender.org
mtllib Cooler(Rough).mtl
o Cylinder
v -0.986905 0.323543 -0.691702
v 0.986905 0.323544 -0.691702
v -0.986905 0.284125 -0.675374
v 0.986905 0.284125 -0.675374
v -0.986905 0.267797 -0.635955
v 0.986905 0.267797 -0.635955
v -0.986905 0.284125 -0.596536
v 0.986905 0.284125 -0.596536
v -0.986905 0.323543 -0.580209
v 0.986905 0.323544 -0.580209
v -0.986905 0.362962 -0.596536
v 0.986905 0.362963 -0.596536
v -0.986905 0.379290 -0.635955
v 0.986905 0.379290 -0.635955
v -0.986905 0.362962 -0.675374
v 0.986905 0.362963 -0.675374
vn 0.0000 -0.3827 -0.9239
vn 0.0000 -0.9239 -0.3827
vn 0.0000 -0.9239 0.3827
vn 0.0000 -0.3827 0.9239
vn -0.0000 0.3827 0.9239
vn -0.0000 0.9239 0.3827
vn 1.0000 0.0000 0.0000
vn -0.0000 0.9239 -0.3827
vn -0.0000 0.3827 -0.9239
vn -1.0000 -0.0000 0.0000
usemtl None
s off
f 1//1 2//1 4//1 3//1
f 3//2 4//2 6//2 5//2
f 5//3 6//3 8//3 7//3
f 7//4 8//4 10//4 9//4
f 9//5 10//5 12//5 11//5
f 11//6 12//6 14//6 13//6
f 4//7 2//7 16//7 14//7 12//7 10//7 8//7 6//7
f 13//8 14//8 16//8 15//8
f 15//9 16//9 2//9 1//9
f 1//10 3//10 5//10 7//10 9//10 11//10 13//10 15//10
o Cube.001_Cube.002
v -0.962279 1.171162 0.374190
v -0.962279 0.617507 -0.753224
v 0.962279 1.171162 0.374190
v 0.962279 0.617507 -0.753224
v -0.962279 0.901965 -0.173979
v 0.000000 0.617507 -0.753224
v 0.962279 0.901965 -0.173979
v 0.000000 1.171162 0.374190
v 0.000000 0.901965 -0.173979
v -0.962279 0.882191 0.516099
v -0.962279 0.759736 -0.463601
v 0.481139 0.617507 -0.753224
v 0.962279 1.044194 0.115644
v -0.481140 1.171162 0.374190
v -0.962279 1.044194 0.115644
v -0.962279 0.328536 -0.611316
v -0.481139 0.617507 -0.753224
v 0.962279 0.328536 -0.611316
v 0.962279 0.759736 -0.463601
v 0.962279 0.882191 0.516099
v 0.481140 1.171162 0.374190
v 0.000000 1.044194 0.115644
v 0.000000 0.759736 -0.463601
v 0.481139 0.901965 -0.173979
v -0.481139 0.901965 -0.173979
v 0.000000 0.882191 0.516099
v 0.962279 0.612994 -0.032070
v 0.000000 0.328536 -0.611316
v -0.962279 0.612994 -0.032070
v -0.962279 0.755224 0.257553
v -0.481139 0.328536 -0.611316
v 0.962279 0.470765 -0.321693
v 0.481140 0.882191 0.516099
v -0.481139 0.759736 -0.463601
v 0.481139 0.759736 -0.463601
v 0.481139 1.044194 0.115644
v -0.481139 1.044194 0.115644
v -0.481140 0.882191 0.516099
v 0.962279 0.755224 0.257553
v 0.481139 0.328536 -0.611316
v -0.962279 0.470765 -0.321693
v -1.020294 0.916685 0.581076
v -0.972601 1.208979 0.401903
v -0.972601 0.777714 -0.476286
v -0.972601 0.633959 -0.769016
v 0.486301 0.633959 -0.769016
v 0.972601 0.633959 -0.769016
v 0.972601 1.065224 0.109173
v 0.972601 1.208979 0.401903
v -0.486301 1.208979 0.401903
v -0.972601 1.065224 0.109173
v -0.972601 0.921469 -0.183557
v -0.486301 0.633959 -0.769016
v 0.000000 0.633959 -0.769016
v 0.972601 0.777714 -0.476286
v 0.972601 0.921469 -0.183557
v 0.486301 1.208979 0.401903
v 0.000000 1.208979 0.401903
v 0.000000 1.072273 0.123528
v 0.000000 0.770665 -0.490641
v 0.000000 0.921469 -0.183557
v 0.510147 0.921469 -0.183557
v -0.510147 0.921469 -0.183557
v -1.020294 0.313468 -0.647261
v 1.020294 0.313468 -0.647261
v 1.020294 0.916685 0.581076
v 0.000000 0.916685 0.581076
v 1.020294 0.615076 -0.033092
v 0.000000 0.313468 -0.647261
v -1.020294 0.615076 -0.033092
v -1.020294 0.765880 0.273992
v -0.510147 0.313468 -0.647261
v 1.020294 0.464272 -0.340176
v 0.510147 0.916685 0.581076
v -0.510147 0.770665 -0.490641
v 0.510147 0.770665 -0.490641
v 0.510147 1.072273 0.123528
v -0.510147 1.072273 0.123528
v -0.510147 0.916685 0.581076
v 1.020294 0.765880 0.273992
v 0.510147 0.313468 -0.647261
v -1.020294 0.464272 -0.340176
v -1.020294 1.172994 0.455207
v -1.020294 0.569777 -0.773130
v 1.020294 0.569777 -0.773130
v 1.020294 1.172994 0.455207
v 0.000000 1.172994 0.455207
v 1.020294 0.871385 -0.158961
v 0.000000 0.569777 -0.773130
v -1.020294 0.871385 -0.158961
v -1.020294 1.022190 0.148123
v -0.510147 0.569777 -0.773130
v 1.020294 0.720581 -0.466046
v 0.510147 1.172994 0.455207
v -0.510147 1.172994 0.455207
v 1.020294 1.022190 0.148123
v 0.510147 0.569777 -0.773130
v -1.020294 0.720581 -0.466046
vn 1.0000 0.0000 0.0000
vn 0.0000 0.4408 0.8976
vn -1.0000 0.0000 0.0000
vn 0.0000 -0.4408 -0.8976
vn 0.0000 -0.8976 0.4408
vn -0.7601 0.5832 -0.2864
vn 0.0000 0.0640 -0.9980
vn 0.7601 0.5832 -0.2864
vn 0.0000 0.8288 0.5595
vn -0.0000 0.8976 -0.4408
vn -0.0399 -0.8969 0.4404
vn 0.0399 -0.8969 0.4404
vn 0.0000 -0.8833 0.4689
vn 0.0000 -0.9222 0.3866
usemtl None
s off
f 57//11 32//11 18//11 27//11
f 56//12 34//12 20//12 28//12
f 55//13 36//13 19//13 29//13
f 54//14 26//14 17//14 30//14
f 53//15 30//15 17//15 31//15
f 52//15 37//15 24//15 38//15
f 51//15 40//15 25//15 39//15
f 50//15 41//15 21//15 27//15
f 49//14 42//14 24//14 37//14
f 48//13 43//13 23//13 35//13
f 47//12 44//12 22//12 33//12
f 46//11 45//11 21//11 31//11
f 26//11 46//11 31//11 17//11
f 32//12 47//12 33//12 18//12
f 34//13 48//13 35//13 20//13
f 36//14 49//14 37//14 19//14
f 39//15 25//15 41//15 50//15
f 22//15 39//15 50//15 33//15
f 33//15 50//15 27//15 18//15
f 35//15 23//15 40//15 51//15
f 20//15 35//15 51//15 28//15
f 28//15 51//15 39//15 22//15
f 29//15 19//15 37//15 52//15
f 23//15 29//15 52//15 40//15
f 40//15 52//15 38//15 25//15
f 38//15 24//15 30//15 53//15
f 25//15 38//15 53//15 41//15
f 41//15 53//15 31//15 21//15
f 42//14 54//14 30//14 24//14
f 43//13 55//13 29//13 23//13
f 44//12 56//12 28//12 22//12
f 45//11 57//11 27//11 21//11
f 114//16 60//16 61//16 100//16
f 113//17 62//17 63//17 101//17
f 112//18 64//18 65//18 102//18
f 111//19 66//19 59//19 99//19
f 94//20 67//20 59//20 66//20
f 93//20 75//20 74//20 73//20
f 92//20 76//20 77//20 78//20
f 91//20 60//20 68//20 79//20
f 110//19 73//19 74//19 103//19
f 109//18 71//18 72//18 104//18
f 108//17 69//17 70//17 105//17
f 107//16 67//16 68//16 106//16
f 99//16 59//16 67//16 107//16
f 100//17 61//17 69//17 108//17
f 101//18 63//18 71//18 109//18
f 102//19 65//19 73//19 110//19
f 76//20 91//20 79//20 77//20
f 70//20 69//20 91//20 76//20
f 69//20 61//20 60//20 91//20
f 71//20 92//20 78//20 72//20
f 63//20 62//20 92//20 71//20
f 62//20 70//20 76//20 92//20
f 64//20 93//20 73//20 65//20
f 72//20 78//20 93//20 64//20
f 78//20 77//20 75//20 93//20
f 75//20 94//20 66//20 74//20
f 77//20 79//20 94//20 75//20
f 79//20 68//20 67//20 94//20
f 103//19 74//19 66//19 111//19
f 104//18 72//18 64//18 112//18
f 105//17 70//17 62//17 113//17
f 106//16 68//16 60//16 114//16
f 57//21 45//21 86//21 98//21
f 46//21 26//21 58//21 87//21
f 36//22 55//22 96//22 82//22
f 42//23 49//23 90//23 83//23
f 55//22 43//22 84//22 96//22
f 49//23 36//23 82//23 90//23
f 44//24 47//24 88//24 85//24
f 47//24 32//24 80//24 88//24
f 34//24 56//24 97//24 81//24
f 56//24 44//24 85//24 97//24
f 26//23 54//23 95//23 58//23
f 43//22 48//22 89//22 84//22
f 54//23 42//23 83//23 95//23
f 48//22 34//22 81//22 89//22
f 32//21 57//21 98//21 80//21
f 45//21 46//21 87//21 86//21
f 86//13 106//13 114//13 98//13
f 85//14 105//14 113//14 97//14
f 84//11 104//11 112//11 96//11
f 83//12 103//12 111//12 95//12
f 82//12 102//12 110//12 90//12
f 81//11 101//11 109//11 89//11
f 80//14 100//14 108//14 88//14
f 58//13 99//13 107//13 87//13
f 87//13 107//13 106//13 86//13
f 88//14 108//14 105//14 85//14
f 89//11 109//11 104//11 84//11
f 90//12 110//12 103//12 83//12
f 95//12 111//12 99//12 58//12
f 96//11 112//11 102//11 82//11
f 97//14 113//14 101//14 81//14
f 98//13 114//13 100//13 80//13
o Cube_Cube.001
v -1.000000 -0.643870 0.645323
v -1.000000 -0.643870 -0.645323
v 1.000000 -0.643870 0.645323
v 1.000000 -0.643870 -0.645323
v -1.000000 -0.643870 0.000000
v -1.000000 0.000000 0.645323
v -1.000000 0.000000 -0.645323
v 0.000000 -0.643870 -0.645323
v 1.000000 0.000000 -0.645323
v 1.000000 -0.643870 0.000000
v 1.000000 0.000000 0.645323
v 0.000000 -0.643870 0.645323
v 0.000000 -0.643870 0.000000
v 0.000000 0.000000 0.645323
v 1.000000 0.000000 0.000000
v 0.000000 0.000000 -0.645323
v -1.000000 0.000000 0.000000
v -1.000000 -0.643870 0.322662
v -1.000000 0.321935 0.645323
v -1.000000 -0.321935 -0.645323
v -0.500000 -0.643870 -0.645323
v 1.000000 -0.321935 -0.645323
v 1.000000 -0.643870 -0.322662
v 1.000000 -0.321935 0.645323
v 0.500000 -0.643870 0.645323
v -1.000000 -0.643870 -0.322662
v -1.000000 -0.321935 0.645323
v -1.000000 0.321935 -0.645323
v 0.500000 -0.643870 -0.645323
v 1.000000 0.321935 -0.645323
v 1.000000 -0.643870 0.322662
v 1.000000 0.321935 0.645323
v -0.500000 -0.643870 0.645323
v 0.000000 -0.643870 0.322662
v 0.000000 -0.643870 -0.322662
v -0.500000 -0.643870 0.000000
v 0.500000 -0.643870 0.000000
v -0.500000 0.000000 0.645323
v 0.500000 0.000000 0.645323
v 0.000000 -0.321935 0.645323
v 0.000000 0.321935 0.645323
v 1.000000 0.000000 0.322662
v 1.000000 0.000000 -0.322662
v 1.000000 -0.321935 0.000000
v 1.000000 0.321935 0.000000
v 0.500000 0.000000 -0.645323
v -0.500000 0.000000 -0.645323
v 0.000000 -0.321935 -0.645323
v 0.000000 0.321935 -0.645323
v -1.000000 0.000000 -0.322662
v -1.000000 0.000000 0.322662
v -1.000000 -0.321935 0.000000
v -1.000000 0.321935 0.000000
v -1.000000 0.321935 0.322662
v -1.000000 -0.321935 0.322662
v -1.000000 -0.321935 -0.322662
v -0.500000 0.321935 -0.645323
v -0.500000 -0.321935 -0.645323
v 0.500000 -0.321935 -0.645323
v 1.000000 0.321935 -0.322662
v 1.000000 -0.321935 -0.322662
v 1.000000 -0.321935 0.322662
v 0.500000 0.321935 0.645323
v 0.500000 -0.321935 0.645323
v -0.500000 -0.321935 0.645323
v 0.500000 -0.643870 -0.322662
v -0.500000 -0.643870 -0.322662
v -0.500000 -0.643870 0.322662
v 0.500000 -0.643870 0.322662
v -0.500000 0.321935 0.645323
v 1.000000 0.321935 0.322662
v 0.500000 0.321935 -0.645323
v -1.000000 0.321935 -0.322662
v -0.930657 -0.589994 0.300287
v -0.930657 -0.589994 0.600575
v -0.930657 -0.290383 -0.600575
v -0.930657 -0.589994 -0.600575
v -0.465329 -0.589994 -0.600575
v 0.930657 -0.290383 -0.600575
v 0.930657 -0.589994 -0.600575
v 0.930657 -0.589994 -0.300287
v 0.930657 -0.290383 0.600575
v 0.930657 -0.589994 0.600575
v 0.465329 -0.589994 0.600575
v -0.930657 -0.589994 -0.300287
v -0.930657 -0.589994 0.000000
v -0.930657 -0.290383 0.600575
v -0.930657 0.009228 0.600575
v -0.930657 0.308839 -0.600575
v -0.930657 0.009228 -0.600575
v 0.465329 -0.589994 -0.600575
v 0.000000 -0.589994 -0.600575
v 0.930657 0.308839 -0.600575
v 0.930657 0.009228 -0.600575
v 0.930657 -0.589994 0.300287
v 0.930657 -0.589994 0.000000
v 0.930657 0.308839 0.600575
v 0.930657 0.009228 0.600575
v -0.465329 -0.589994 0.600575
v 0.000000 -0.589994 0.600575
v 0.000000 -0.589994 0.300287
v 0.000000 -0.589994 -0.300287
v 0.000000 -0.589994 0.000000
v -0.465329 -0.589994 0.000000
v 0.465329 -0.589994 0.000000
v -0.465329 0.009228 0.600575
v 0.465329 0.009228 0.600575
v 0.000000 0.009228 0.600575
v 0.000000 -0.290383 0.600575
v 0.000000 0.308839 0.600575
v 0.930657 0.009228 0.300287
v 0.930657 0.009228 -0.300287
v 0.930657 0.009228 0.000000
v 0.930657 -0.290383 0.000000
v 0.930657 0.308839 0.000000
v 0.465329 0.009228 -0.600575
v -0.465329 0.009228 -0.600575
v 0.000000 0.009228 -0.600575
v 0.000000 -0.290383 -0.600575
v 0.000000 0.308839 -0.600575
v -0.930657 0.009228 -0.300287
v -0.930657 0.009228 0.300287
v -0.930657 0.009228 0.000000
v -0.930657 -0.290383 0.000000
v -0.930657 0.308839 0.000000
v -0.930657 0.308839 0.600575
v -0.930657 0.308839 0.300287
v -0.930657 -0.290383 0.300287
v -0.930657 -0.290383 -0.300287
v -0.465329 0.308839 -0.600575
v -0.465329 -0.290383 -0.600575
v 0.465329 -0.290383 -0.600575
v 0.930657 0.308839 -0.300287
v 0.930657 -0.290383 -0.300287
v 0.930657 -0.290383 0.300287
v 0.465329 0.308839 0.600575
v 0.465329 -0.290383 0.600575
v -0.465329 -0.290383 0.600575
v 0.465329 -0.589994 -0.300287
v -0.465329 -0.589994 -0.300287
v -0.465329 -0.589994 0.300287
v 0.465329 -0.589994 0.300287
v -0.465329 0.308839 0.600575
v 0.930657 0.308839 0.300287
v 0.465329 0.308839 -0.600575
v -0.930657 0.308839 -0.300287
vn 0.0000 -1.0000 0.0000
vn 0.0000 0.0000 1.0000
vn 1.0000 0.0000 0.0000
vn 0.0000 0.0000 -1.0000
vn -1.0000 0.0000 0.0000
vn 0.0000 1.0000 0.0000
vn -0.1856 0.9826 0.0000
vn 0.0000 0.9597 -0.2809
vn 0.1856 0.9826 0.0000
vn 0.0000 0.9597 0.2809
usemtl None
s off
f 183//25 145//25 117//25 139//25
f 182//25 148//25 126//25 147//25
f 181//25 149//25 127//25 150//25
f 180//25 137//25 124//25 151//25
f 179//26 152//26 120//26 141//26
f 178//26 153//26 128//26 154//26
f 176//27 156//27 125//27 138//27
f 175//27 157//27 129//27 158//27
f 173//28 160//28 123//28 136//28
f 172//28 161//28 130//28 162//28
f 170//29 164//29 121//29 134//29
f 169//29 165//29 131//29 166//29
f 165//29 168//29 167//29 131//29
f 120//29 133//29 168//29 165//29
f 132//29 169//29 166//29 119//29
f 115//29 141//29 169//29 132//29
f 141//29 120//29 165//29 169//29
f 140//29 170//29 134//29 116//29
f 119//29 166//29 170//29 140//29
f 166//29 131//29 164//29 170//29
f 161//28 171//28 163//28 130//28
f 121//28 142//28 171//28 161//28
f 135//28 172//28 162//28 122//28
f 116//28 134//28 172//28 135//28
f 134//28 121//28 161//28 172//28
f 143//28 173//28 136//28 118//28
f 122//28 162//28 173//28 143//28
f 162//28 130//28 160//28 173//28
f 157//27 174//27 159//27 129//27
f 123//27 144//27 174//27 157//27
f 137//27 175//27 158//27 124//27
f 118//27 136//27 175//27 137//27
f 136//27 123//27 157//27 175//27
f 145//27 176//27 138//27 117//27
f 124//27 158//27 176//27 145//27
f 158//27 129//27 156//27 176//27
f 153//26 177//26 155//26 128//26
f 125//26 146//26 177//26 153//26
f 139//26 178//26 154//26 126//26
f 117//26 138//26 178//26 139//26
f 138//26 125//26 153//26 178//26
f 147//26 179//26 141//26 115//26
f 126//26 154//26 179//26 147//26
f 154//26 128//26 152//26 179//26
f 149//25 180//25 151//25 127//25
f 122//25 143//25 180//25 149//25
f 143//25 118//25 137//25 180//25
f 140//25 181//25 150//25 119//25
f 116//25 135//25 181//25 140//25
f 135//25 122//25 149//25 181//25
f 132//25 182//25 147//25 115//25
f 119//25 150//25 182//25 132//25
f 150//25 127//25 148//25 182//25
f 148//25 183//25 139//25 126//25
f 127//25 151//25 183//25 148//25
f 151//25 124//25 145//25 183//25
f 152//26 184//26 133//26 120//26
f 128//26 155//26 184//26 152//26
f 156//27 185//27 146//27 125//27
f 129//27 159//27 185//27 156//27
f 160//28 186//28 144//28 123//28
f 130//28 163//28 186//28 160//28
f 164//29 187//29 142//29 121//29
f 131//29 167//29 187//29 164//29
f 256//30 198//30 197//30 209//30
f 255//30 213//30 214//30 215//30
f 254//30 218//30 217//30 216//30
f 253//30 219//30 210//30 195//30
f 252//28 201//28 202//28 220//28
f 251//28 223//28 222//28 221//28
f 249//29 196//29 212//29 225//29
f 248//29 228//29 227//29 226//29
f 246//26 193//26 208//26 230//26
f 245//26 233//26 232//26 231//26
f 243//27 190//27 204//27 235//27
f 242//27 238//27 237//27 236//27
f 236//27 237//27 239//27 241//27
f 202//27 236//27 241//27 240//27
f 188//27 200//27 238//27 242//27
f 189//27 188//27 242//27 201//27
f 201//27 242//27 236//27 202//27
f 199//27 191//27 190//27 243//27
f 200//27 199//27 243//27 238//27
f 238//27 243//27 235//27 237//27
f 231//26 232//26 234//26 244//26
f 204//26 231//26 244//26 203//26
f 192//26 206//26 233//26 245//26
f 191//26 192//26 245//26 190//26
f 190//26 245//26 231//26 204//26
f 205//26 194//26 193//26 246//26
f 206//26 205//26 246//26 233//26
f 233//26 246//26 230//26 232//26
f 226//29 227//29 229//29 247//29
f 208//29 226//29 247//29 207//29
f 195//29 210//29 228//29 248//29
f 194//29 195//29 248//29 193//29
f 193//29 248//29 226//29 208//29
f 209//29 197//29 196//29 249//29
f 210//29 209//29 249//29 228//29
f 228//29 249//29 225//29 227//29
f 221//28 222//28 224//28 250//28
f 212//28 221//28 250//28 211//28
f 198//28 214//28 223//28 251//28
f 197//28 198//28 251//28 196//28
f 196//28 251//28 221//28 212//28
f 213//28 189//28 201//28 252//28
f 214//28 213//28 252//28 223//28
f 223//28 252//28 220//28 222//28
f 216//30 217//30 219//30 253//30
f 206//30 216//30 253//30 205//30
f 205//30 253//30 195//30 194//30
f 199//30 200//30 218//30 254//30
f 191//30 199//30 254//30 192//30
f 192//30 254//30 216//30 206//30
f 188//30 189//30 213//30 255//30
f 200//30 188//30 255//30 218//30
f 218//30 255//30 215//30 217//30
f 215//30 214//30 198//30 256//30
f 217//30 215//30 256//30 219//30
f 219//30 256//30 209//30 210//30
f 220//28 202//28 240//28 257//28
f 222//28 220//28 257//28 224//28
f 225//29 212//29 211//29 258//29
f 227//29 225//29 258//29 229//29
f 230//26 208//26 207//26 259//26
f 232//26 230//26 259//26 234//26
f 235//27 204//27 203//27 260//27
f 237//27 235//27 260//27 239//27
f 144//31 207//31 247//31 174//31
f 184//32 257//32 240//32 133//32
f 133//33 240//33 241//33 168//33
f 155//32 224//32 257//32 184//32
f 187//33 260//33 203//33 142//33
f 167//33 239//33 260//33 187//33
f 177//32 250//32 224//32 155//32
f 171//34 244//34 234//34 163//34
f 185//31 258//31 211//31 146//31
f 146//32 211//32 250//32 177//32
f 142//34 203//34 244//34 171//34
f 159//31 229//31 258//31 185//31
f 186//34 259//34 207//34 144//34
f 174//31 247//31 229//31 159//31
f 168//33 241//33 239//33 167//33
f 163//34 234//34 259//34 186//34
o Cube.002_Cube.003
v -1.048248 -0.157486 0.131189
v -1.048248 0.164605 0.131189
v -1.048248 -0.157486 -0.131189
v -1.048248 0.164605 -0.131189
v -0.975938 -0.157486 0.131189
v -0.975938 0.164605 0.131189
v -0.975938 -0.157486 -0.131189
v -0.975938 0.164605 -0.131189
v -1.042548 -0.132093 -0.110504
v -1.042548 -0.132093 0.110504
v -1.042548 0.139213 0.110504
v -1.042548 0.139213 -0.110504
v -0.981639 -0.132093 -0.110504
v -0.981639 0.139213 -0.110504
v -0.981639 -0.132093 0.110504
v -0.981639 0.139213 0.110504
v -1.052776 0.151909 0.120846
v -1.052776 0.151909 -0.120846
v -1.052776 -0.144789 -0.120846
v -1.052776 -0.144789 0.120846
v -1.048244 0.205736 0.131189
v -1.048244 0.205736 -0.131189
v -0.975934 0.205736 -0.131189
v -0.975934 0.205736 0.131189
v -1.048246 0.164605 -0.231635
v -0.975936 0.164605 -0.231635
v -0.975936 0.164605 0.231635
v -1.048246 0.164605 0.231635
v -1.048242 0.205736 -0.231635
v -0.975932 0.205736 -0.231635
v -0.975932 0.205736 0.231635
v -1.048242 0.205736 0.231635
v 1.048248 -0.157486 0.131189
v 1.048248 0.164605 0.131189
v 1.048248 -0.157486 -0.131189
v 1.048248 0.164605 -0.131189
v 0.975938 -0.157486 0.131189
v 0.975938 0.164605 0.131189
v 0.975938 -0.157486 -0.131189
v 0.975938 0.164605 -0.131189
v 1.042548 -0.132093 -0.110504
v 1.042548 -0.132093 0.110504
v 1.042548 0.139213 0.110504
v 1.042548 0.139213 -0.110504
v 0.981639 -0.132093 -0.110504
v 0.981639 0.139213 -0.110504
v 0.981639 -0.132093 0.110504
v 0.981639 0.139213 0.110504
v 1.052776 0.151909 0.120846
v 1.052776 0.151909 -0.120846
v 1.052776 -0.144789 -0.120846
v 1.052776 -0.144789 0.120846
v 1.048244 0.205736 0.131189
v 1.048244 0.205736 -0.131189
v 0.975934 0.205736 -0.131189
v 0.975934 0.205736 0.131189
v 1.048246 0.164605 -0.231635
v 0.975936 0.164605 -0.231635
v 0.975936 0.164605 0.231635
v 1.048246 0.164605 0.231635
v 1.048242 0.205736 -0.231635
v 0.975932 0.205736 -0.231635
v 0.975932 0.205736 0.231635
v 1.048242 0.205736 0.231635
vn 0.0000 0.0000 -1.0000
vn 0.0000 0.0000 1.0000
vn 0.0000 -1.0000 0.0000
vn 1.0000 -0.0001 0.0000
vn 0.0000 1.0000 0.0000
vn 0.9757 -0.2191 0.0000
vn 0.9641 0.0000 0.2657
vn -0.7787 -0.6274 0.0000
vn -0.7787 0.6274 0.0000
vn 0.9641 0.0000 -0.2657
vn 0.9757 0.2191 0.0000
vn -0.7110 0.0000 0.7032
vn -0.7110 0.0000 -0.7032
vn -0.9161 0.0000 0.4011
vn -0.9161 0.0000 -0.4011
vn -0.9419 -0.3359 0.0000
vn -0.9419 0.3359 0.0000
vn -1.0000 0.0001 0.0000
vn -1.0000 -0.0001 0.0000
vn -0.9757 -0.2191 0.0000
vn -0.9641 0.0000 0.2657
vn 0.7787 -0.6274 0.0000
vn 0.7787 0.6274 0.0000
vn -0.9641 0.0000 -0.2657
vn -0.9757 0.2191 0.0000
vn 0.7110 0.0000 0.7032
vn 0.7110 0.0000 -0.7032
vn 0.9161 0.0000 0.4011
vn 0.9161 0.0000 -0.4011
vn 0.9419 -0.3359 0.0000
vn 0.9419 0.3359 0.0000
vn 1.0000 0.0001 0.0000
usemtl None
s off
f 263//35 264//35 268//35 267//35
f 265//36 266//36 262//36 261//36
f 263//37 267//37 265//37 261//37
f 266//38 268//38 283//38 284//38
f 269//36 273//36 274//36 272//36
f 275//35 270//35 271//35 276//35
f 269//39 270//39 275//39 273//39
f 274//37 276//37 271//37 272//37
f 266//40 276//40 274//40 268//40
f 268//41 274//41 273//41 267//41
f 278//42 272//42 271//42 277//42
f 280//43 270//43 269//43 279//43
f 265//44 275//44 276//44 266//44
f 267//45 273//45 275//45 265//45
f 279//46 269//46 272//46 278//46
f 277//47 271//47 270//47 280//47
f 262//48 277//48 280//48 261//48
f 263//49 279//49 278//49 264//49
f 261//50 280//50 279//50 263//50
f 264//51 278//51 277//51 262//51
f 283//39 282//39 281//39 284//39
f 264//52 262//52 281//52 282//52
f 281//52 262//52 288//52 292//52
f 282//39 283//39 290//39 289//39
f 288//36 287//36 291//36 292//36
f 286//35 285//35 289//35 290//35
f 283//38 268//38 286//38 290//38
f 262//37 266//37 287//37 288//37
f 268//37 264//37 285//37 286//37
f 264//52 282//52 289//52 285//52
f 266//38 284//38 291//38 287//38
f 284//39 281//39 292//39 291//39
f 295//35 299//35 300//35 296//35
f 297//36 293//36 294//36 298//36
f 295//37 293//37 297//37 299//37
f 298//53 316//53 315//53 300//53
f 301//36 304//36 306//36 305//36
f 307//35 308//35 303//35 302//35
f 301//39 305//39 307//39 302//39
f 306//37 304//37 303//37 308//37
f 298//54 300//54 306//54 308//54
f 300//55 299//55 305//55 306//55
f 310//56 309//56 303//56 304//56
f 312//57 311//57 301//57 302//57
f 297//58 298//58 308//58 307//58
f 299//59 297//59 307//59 305//59
f 311//60 310//60 304//60 301//60
f 309//61 312//61 302//61 303//61
f 294//62 293//62 312//62 309//62
f 295//63 296//63 310//63 311//63
f 293//64 295//64 311//64 312//64
f 296//65 294//65 309//65 310//65
f 315//39 316//39 313//39 314//39
f 296//66 314//66 313//66 294//66
f 313//66 324//66 320//66 294//66
f 314//39 321//39 322//39 315//39
f 320//36 324//36 323//36 319//36
f 318//35 322//35 321//35 317//35
f 315//53 322//53 318//53 300//53
f 294//37 320//37 319//37 298//37
f 300//37 318//37 317//37 296//37
f 296//66 317//66 321//66 314//66
f 298//53 319//53 323//53 316//53
f 316//39 323//39 324//39 313//39
