# Blender v2.79 (sub 0) OBJ File: ''
# www.blender.org
o Cube_Cube.001
v -0.377490 -0.624440 0.334823
v -0.377490 0.971756 0.330193
v -0.377490 -0.556905 -1.256799
v -0.377490 0.960097 -1.256799
v 0.304503 -0.694825 0.393883
v 0.377490 0.971756 0.330193
v 0.377490 0.960097 -1.256799
v -0.408382 -0.618977 -0.508836
v -0.408382 0.146086 0.424250
v -0.408382 1.022168 -0.508836
v -0.408382 0.201596 -1.486599
v 0.000000 -0.618977 -1.307934
v 0.000000 1.022168 -1.307934
v 0.408382 0.201596 -1.486599
v 0.408382 1.022168 -0.508836
v 0.408382 0.075710 0.570301
v 0.000000 -0.730577 0.479216
v 0.000000 1.050089 0.430862
v 0.000000 1.194752 -0.508836
v 0.000000 -0.791549 -0.508836
v 0.000000 0.097741 0.837018
v 0.000000 0.201596 -1.680334
v -0.494268 0.201596 -0.510390
v -0.400235 -0.602606 -0.096075
v -0.400235 0.596160 0.400172
v -0.400235 1.005798 -0.922502
v -0.400235 -0.230859 -1.391852
v -0.215224 -0.602606 -1.296135
v 0.215224 1.005798 -1.296135
v 0.400235 -0.230859 -1.391852
v 0.400235 1.045495 -0.097794
v 0.362368 -0.406146 0.613736
v 0.215224 -0.689995 0.412406
v -0.215224 1.022823 0.406232
v -0.400235 -0.602606 -0.922502
v -0.400235 -0.318101 0.403148
v -0.400235 1.045495 -0.097794
v -0.400235 0.634050 -1.391853
v 0.215224 -0.602606 -1.296135
v -0.215224 1.005798 -1.296135
v 0.400235 0.634050 -1.391853
v 0.400235 -0.615437 -0.063404
v 0.400235 1.005798 -0.922502
v 0.400235 0.596160 0.400172
v -0.215224 -0.701242 0.437967
v 0.215224 1.022823 0.406232
v 0.000000 1.217167 -0.084377
v 0.000000 1.156543 -0.935919
v 0.222692 1.156543 -0.508836
v -0.222692 1.156543 -0.508836
v 0.000000 -0.753351 -0.935919
v -0.222692 -0.753351 -0.508836
v 0.222692 -0.753351 -0.508836
v -0.222692 0.105611 0.688474
v 0.222692 0.085498 0.790308
v 0.000000 -0.417620 0.782766
v 0.000000 0.589434 0.776149
v 0.475257 0.133700 0.052979
v 0.475257 0.201596 -1.032237
v 0.475257 0.649057 -0.508836
v 0.222692 0.201596 -1.643876
v -0.222692 0.201596 -1.643876
v 0.000000 -0.245865 -1.549149
v 0.000000 0.649057 -1.549149
v -0.475257 0.201596 -1.032237
v -0.475257 0.201730 -0.081758
v -0.475257 -0.245865 -0.508836
v -0.475257 0.649057 -0.508836
v -0.459472 0.669949 -0.088952
v -0.459472 -0.239556 -0.087774
v -0.459472 -0.239556 -0.977956
v -0.219552 0.642747 -1.521110
v -0.219552 -0.239556 -1.521110
v 0.219552 -0.239556 -1.521110
v 0.459472 0.642747 -0.977956
v 0.459472 -0.301272 0.043419
v 0.219552 0.585927 0.635376
v 0.219552 -0.413755 0.738023
v -0.219552 -0.388023 0.640845
v 0.219552 -0.721634 -0.929897
v -0.219552 -0.721634 -0.929897
v -0.219552 1.124825 -0.929897
v 0.219552 1.124825 -0.929897
v 0.219552 1.177984 -0.090076
v -0.219552 1.177984 -0.090076
v 0.219552 -0.721634 -0.087774
v -0.219552 0.585927 0.635376
v 0.459472 0.669949 -0.088952
v 0.219552 0.642747 -1.521110
v -0.459472 0.642747 -0.977956
v 0.421716 -0.246306 -1.390220
v 0.547793 -0.599058 -1.259091
v 0.570537 -0.644759 -0.939106
v 0.570537 -0.644759 -0.113585
v 0.578684 -0.661130 -0.526345
v 0.913551 0.137353 -0.767168
v 0.645560 -0.288018 -0.526345
v 0.645560 0.606904 -0.526345
v 0.385526 -0.644759 -1.304112
v 0.392995 -0.795504 -0.526345
v 0.645560 0.140322 -0.060560
v 0.241033 -0.255003 -1.521139
v 0.629775 0.600594 -0.984726
v 0.629775 -0.281709 -0.973012
v 0.629775 -0.300283 -0.063366
v 0.389855 -0.763786 -0.947407
v 0.389855 -0.763786 -0.105284
v 0.629775 0.607053 -0.105564
v 0.617010 -0.620242 -0.178586
v 0.788756 0.122461 -0.874967
v 0.803690 0.122461 -0.517359
v 0.788756 0.473972 -0.517359
v 0.788756 0.122461 -0.181856
v 0.776356 0.469016 -0.863489
v 0.776356 -0.224093 -0.854053
v 0.776356 -0.224093 -0.186587
v 0.776356 0.469016 -0.186587
v 0.913551 0.382738 -0.531573
v 0.803150 -0.177584 -0.561375
v 0.904894 0.379278 -0.763319
v 0.904894 -0.104571 -0.762491
v 0.904894 0.379278 -0.300665
v -0.247376 -0.477172 0.232711
v -0.265355 -0.473992 -0.258301
v -0.027676 -0.538943 0.316748
v -0.027676 -0.574430 -0.258301
v -0.260613 -0.464464 -0.018073
v 0.097585 -0.515325 0.277864
v -0.152936 -0.521870 0.292741
v -0.157283 -0.552198 -0.258301
v 0.101932 -0.552198 -0.258301
v 0.100104 -0.533738 -0.013242
v -0.200905 -0.374041 0.239805
v -0.212556 -0.371980 -0.078381
v -0.058534 -0.414070 0.294263
v -0.058534 -0.437066 -0.078381
v -0.209483 -0.365806 0.077292
v 0.022637 -0.398765 0.269065
v -0.139706 -0.403006 0.278706
v -0.142523 -0.422660 -0.078381
v 0.025454 -0.422660 -0.078381
v 0.024270 -0.410697 0.080422
v -0.058301 -0.332360 0.079316
v -0.141076 -0.316464 0.078208
vn -0.9913 0.1028 -0.0822
vn -0.8197 0.5613 -0.1139
vn -0.7384 0.5338 -0.4120
vn -0.8246 0.2315 -0.5161
vn 0.3370 0.3657 -0.8676
vn 0.2935 0.7509 -0.5916
vn 0.7384 0.5338 -0.4120
vn 0.8246 0.2315 -0.5161
vn 0.8993 0.3601 0.2481
vn 0.8301 0.5511 0.0844
vn 0.8012 0.4676 0.3734
vn 0.9002 0.1700 0.4007
vn -0.6001 0.2511 0.7595
vn -0.4438 0.6962 0.5642
vn -0.8012 0.4676 0.3734
vn -0.9010 0.1296 0.4139
vn -0.4440 -0.8780 0.1787
vn 0.5098 -0.5076 0.6946
vn 0.6670 -0.6995 0.2566
vn 0.0961 -0.9738 0.2059
vn -0.3607 0.9260 0.1113
vn -0.8301 0.5511 0.0844
vn 0.3607 0.9260 0.1113
vn 0.0000 0.9916 0.1289
vn 0.0000 0.7958 0.6055
vn 0.4438 0.6962 0.5642
vn 0.3276 0.9287 -0.1736
vn 0.0000 0.9786 -0.2056
vn 0.0000 0.9977 -0.0669
vn 0.3814 0.9226 -0.0571
vn -0.3276 0.9287 -0.1736
vn -0.8485 0.5284 -0.0271
vn -0.3814 0.9226 -0.0571
vn -0.3276 -0.9287 -0.1736
vn 0.0000 -0.9786 -0.2056
vn 0.0032 -0.9543 0.2987
vn -0.3581 -0.8860 0.2945
vn -0.0582 -0.9786 -0.1973
vn -0.0594 -0.7771 -0.6265
vn 0.1728 -0.7416 -0.6482
vn 0.1393 -0.9740 -0.1785
vn -0.6305 -0.2788 0.7244
vn -0.6852 0.0042 0.7283
vn -0.9271 0.0034 0.3747
vn -0.9188 -0.1297 0.3729
vn 0.4237 -0.3942 0.8155
vn 0.5294 0.0627 0.8460
vn -0.1343 0.0322 0.9904
vn -0.1279 -0.4004 0.9073
vn 0.5534 0.3145 0.7712
vn -0.0493 0.3431 0.9380
vn 0.8220 -0.1767 0.5413
vn 0.8378 0.0410 0.5444
vn 0.9037 0.0440 0.4259
vn 0.8097 -0.3060 0.5006
vn 0.5447 0.0508 0.8371
vn 0.5581 0.6264 0.5441
vn 0.8609 0.4010 -0.3132
vn 0.8197 0.5613 -0.1139
vn 0.8485 0.5284 -0.0271
vn 0.7336 0.6794 -0.0138
vn 0.2652 -0.2723 -0.9249
vn 0.3825 0.0000 -0.9239
vn 0.8209 0.0395 -0.5698
vn 0.3447 0.1178 -0.9312
vn -0.3370 -0.3657 -0.8676
vn -0.3825 0.0000 -0.9239
vn 0.0000 0.0000 -1.0000
vn 0.0000 -0.4076 -0.9131
vn -0.3370 0.3657 -0.8676
vn -0.2935 0.7509 -0.5916
vn 0.0000 0.7851 -0.6193
vn 0.0000 0.4076 -0.9131
vn -0.9913 -0.1028 -0.0822
vn -0.9955 0.0000 -0.0940
vn -0.8451 0.0000 -0.5345
vn -0.8246 -0.2315 -0.5161
vn -0.9936 -0.0892 0.0687
vn -0.9965 0.0009 0.0836
vn -1.0000 -0.0003 0.0025
vn -0.9944 -0.1059 0.0019
vn -0.9931 0.0916 0.0736
vn -0.9946 0.1036 -0.0015
vn -0.3261 -0.9445 0.0395
vn -0.7809 -0.6037 0.1599
vn -0.6242 -0.7812 0.0077
vn -0.8197 -0.5613 -0.1139
vn -0.7384 -0.5338 -0.4120
vn -0.2935 -0.7509 -0.5916
vn 0.0000 -0.7851 -0.6193
vn 0.5727 -0.5653 0.5937
vn 0.5997 -0.1646 0.7831
vn 0.8129 0.0557 -0.5798
vn 0.4340 0.6034 -0.6690
vn 0.4928 0.8701 -0.0102
vn -0.1507 -0.9803 0.1272
vn 0.1789 -0.9839 -0.0024
vn 0.1825 -0.8150 0.5499
vn 0.7061 0.0167 -0.7079
vn -0.0758 -0.9943 0.0743
vn -0.4177 -0.9085 0.0066
vn 0.2343 -0.0344 -0.9715
vn 0.8318 -0.5305 -0.1632
vn 0.8128 -0.5800 -0.0539
vn 0.7239 0.4425 -0.5292
vn 0.5775 -0.0092 -0.8163
vn 0.7647 -0.4140 -0.4938
vn 0.8068 -0.5555 0.2013
vn 0.9097 -0.1490 -0.3876
vn 0.9205 -0.3906 0.0111
vn 0.7424 0.4410 0.5044
vn 0.6384 0.7696 0.0008
vn 0.9337 -0.1975 0.2987
vn 0.8711 -0.1273 0.4742
vn 0.9313 0.2364 0.2770
vn 0.9579 -0.2247 0.1786
vn 0.6901 -0.4486 0.5679
vn 0.8969 0.3309 -0.2933
vn 0.9555 -0.0750 -0.2853
vn 0.6542 -0.5952 -0.4666
vn 0.9302 -0.3160 -0.1867
vn 0.9441 0.3215 0.0725
vn 0.6738 -0.5688 -0.4716
vn 0.2074 -0.4453 -0.8710
vn 0.0009 -0.7741 0.6330
vn -0.3027 -0.7305 0.6121
vn -0.0450 -0.4719 -0.8805
vn -0.6531 -0.6220 -0.4319
vn 0.1351 -0.8982 0.4183
vn -0.8389 -0.5434 0.0312
vn 0.8160 -0.5773 -0.0296
vn -0.4272 -0.8013 0.4188
vn -0.2281 -0.8193 0.5260
vn 0.3691 -0.8747 0.3140
vn -0.6383 -0.7672 0.0631
vn -0.4720 -0.8154 0.3350
vn 0.5980 -0.6576 -0.4581
vn 0.2259 -0.5829 -0.7805
vn -0.1250 -0.8355 0.5351
vn 0.5887 -0.8083 0.0009
vn -0.1310 -0.5842 -0.8010
vn -0.5671 -0.6786 -0.4667
vn -0.0206 -0.9975 0.0678
vn -0.2515 -0.9637 0.0897
s 1
f 90//1 26//2 4//3 38//4
f 89//5 29//6 7//7 41//8
f 88//9 31//10 6//11 44//12
f 87//13 34//14 2//15 25//16
f 86//17 42//18 5//19 33//20
f 85//21 37//22 2//15 34//14
f 84//23 47//24 18//25 46//26
f 83//27 48//28 19//29 49//30
f 82//31 26//2 10//32 50//33
f 81//34 51//35 20//36 52//37
f 80//38 39//39 99//40 106//41
f 79//42 54//43 9//44 36//45
f 78//46 55//47 21//48 56//49
f 77//50 46//26 18//25 57//51
f 76//52 58//53 16//54 32//55
f 88//9 58//53 101//56 108//57
f 75//58 43//59 15//60 60//61
f 74//62 61//63 14//64 30//65
f 73//66 62//67 22//68 63//69
f 72//70 40//71 13//72 64//73
f 71//74 65//75 11//76 27//77
f 70//78 66//79 23//80 67//81
f 69//82 37//22 10//32 68//83
f 66//79 69//82 68//83 23//80
f 9//44 25//16 69//82 66//79
f 25//16 2//15 37//22 69//82
f 24//84 70//78 67//81 8//85
f 1//86 36//45 70//78 24//84
f 36//45 9//44 66//79 70//78
f 35//87 71//74 27//77 3//88
f 8//85 67//81 71//74 35//87
f 67//81 23//80 65//75 71//74
f 62//67 72//70 64//73 22//68
f 11//76 38//4 72//70 62//67
f 38//4 4//3 40//71 72//70
f 28//89 73//66 63//69 12//90
f 3//88 27//77 73//66 28//89
f 27//77 11//76 62//67 73//66
f 76//52 42//18 94//91 105//92
f 12//90 63//69 74//62 39//39
f 63//69 22//68 61//63 74//62
f 59//93 75//58 103//94
f 14//64 41//8 75//58 59//93
f 41//8 7//7 43//59 75//58
f 60//61 88//9 108//57 98//95
f 53//96 80//38 106//41 100//97
f 42//18 76//52 32//55 5//19
f 86//17 53//96 100//97 107//98
f 30//65 14//64 91//99
f 55//47 77//50 57//51 21//48
f 16//54 44//12 77//50 55//47
f 44//12 6//11 46//26 77//50
f 33//20 78//46 56//49 17//100
f 5//19 32//55 78//46 33//20
f 32//55 16//54 55//47 78//46
f 45//101 79//42 36//45 1//86
f 17//100 56//49 79//42 45//101
f 56//49 21//48 54//43 79//42
f 51//35 80//38 53//96 20//36
f 12//90 39//39 80//38 51//35
f 75//58 60//61 98//95 103//94
f 35//87 81//34 52//37 8//85
f 3//88 28//89 81//34 35//87
f 28//89 12//90 51//35 81//34
f 48//28 82//31 50//33 19//29
f 13//72 40//71 82//31 48//28
f 40//71 4//3 26//2 82//31
f 43//59 83//27 49//30 15//60
f 7//7 29//6 83//27 43//59
f 29//6 13//72 48//28 83//27
f 31//10 84//23 46//26 6//11
f 15//60 49//30 84//23 31//10
f 49//30 19//29 47//24 84//23
f 47//24 85//21 34//14 18//25
f 19//29 50//33 85//21 47//24
f 50//33 10//32 37//22 85//21
f 39//39 74//62 102//102 99//40
f 54//43 87//13 25//16 9//44
f 21//48 57//51 87//13 54//43
f 57//51 18//25 34//14 87//13
f 58//53 88//9 44//12 16//54
f 58//53 76//52 105//92 101//56
f 60//61 15//60 31//10 88//9
f 61//63 89//5 41//8 14//64
f 22//68 64//73 89//5 61//63
f 64//73 13//72 29//6 89//5
f 65//75 90//1 38//4 11//76
f 23//80 68//83 90//1 65//75
f 68//83 10//32 26//2 90//1
f 106//41 93//103 95//104 100//97
f 59//93 103//94 114//105 110//106
f 99//40 102//102 91//99 92//107
f 94//91 95//104 109//108
f 93//103 104//109 97//110 95//104
f 92//107 91//99 104//109 93//103
f 91//99 14//64 59//93 104//109
f 98//95 108//57 117//111 112//112
f 105//92 94//91 109//108 116//113
f 99//40 92//107 93//103 106//41
f 100//97 95//104 94//91 107//98
f 103//94 98//95 112//112 114//105
f 42//18 86//17 107//98 94//91
f 74//62 30//65 91//99 102//102
f 117//111 113//114 122//115
f 111//116 97//110 119//117
f 95//104 97//110 116//113 109//108
f 97//110 111//116 113//114 116//113
f 110//106 114//105 120//118 96//119
f 101//56 105//92 116//113 113//114
f 108//57 101//56 113//114 117//111
f 104//109 59//93 110//106 115//120
f 97//110 104//109 115//120
f 121//121 96//119 111//116 119//117
f 96//119 120//118 118//122 111//116
f 111//116 118//122 122//115 113//114
f 97//110 115//120 121//121 119//117
f 114//105 112//112 118//122 120//118
f 112//112 117//111 122//115 118//122
f 115//120 110//106 96//119 121//121
f 45//101 1//86 123//123 129//124
f 52//37 20//36 126//125 130//126
f 33//20 17//100 125//127 128//128
f 17//100 45//101 129//124 125//127
f 8//85 52//37 130//126 124//129
f 86//17 33//20 128//128 132//130
f 24//84 8//85 124//129 127//131
f 53//96 86//17 132//130 131//132
f 20//36 53//96 131//132 126//125
f 1//86 24//84 127//131 123//123
f 124//129 130//126 140//133 134//134
f 131//132 132//130 142//135 141//136
f 129//124 123//123 133//137 139//138
f 126//125 131//132 141//136 136//139
f 123//123 127//131 137//140 133//137
f 130//126 126//125 136//139 140//133
f 127//131 124//129 134//134 137//140
f 125//127 129//124 139//138 135//141
f 132//130 128//128 138//142 142//135
f 128//128 125//127 135//141 138//142
f 133//137 137//140 144//143 139//138
f 142//135 143//144 136//139 141//136
f 136//139 143//144 144//143 140//133
f 135//141 143//144 142//135 138//142
f 140//133 144//143 137//140 134//134
f 139//138 144//143 143//144 135//141
