# Blender v2.79 (sub 0) OBJ File: ''
# www.blender.org
o Cube_Cube.001
v -0.900488 0.029411 0.749387
v -0.900488 4.987532 0.749387
v -0.900488 0.029411 -0.749387
v -0.900488 4.987532 -0.749387
v 0.900488 0.029411 0.749387
v 0.900488 4.987532 0.749387
v 0.900488 0.029411 -0.749387
v 0.900488 4.987532 -0.749387
vt 0.376266 0.007899
vt 0.376266 0.998526
vt 0.748759 0.998526
vt 0.748759 0.007899
vt 0.012059 0.012563
vt 0.012059 0.995316
vt 0.369032 0.995316
vt 0.369032 0.012563
vt 0.748759 0.007899
vt 0.748759 0.998526
vt 0.376266 0.998526
vt 0.376266 0.007899
vt 0.369032 0.012563
vt 0.369032 0.995316
vt 0.012059 0.995316
vt 0.012059 0.012563
vt 0.762253 0.966284
vt 0.986380 0.966284
vt 0.986380 0.779766
vt 0.762253 0.779766
vt 0.986380 0.966284
vt 0.762253 0.966284
vt 0.762253 0.779766
vt 0.986380 0.779766
vn -1.0000 0.0000 0.0000
vn 0.0000 0.0000 -1.0000
vn 1.0000 0.0000 0.0000
vn 0.0000 0.0000 1.0000
vn 0.0000 -1.0000 0.0000
vn 0.0000 1.0000 0.0000
s off
f 1/1/1 2/2/1 4/3/1 3/4/1
f 3/5/2 4/6/2 8/7/2 7/8/2
f 7/9/3 8/10/3 6/11/3 5/12/3
f 5/13/4 6/14/4 2/15/4 1/16/4
f 3/17/5 7/18/5 5/19/5 1/20/5
f 8/21/6 4/22/6 2/23/6 6/24/6
